<svg width="40" height="40" viewBox="0 0 40 40" fill="none" xmlns="http://www.w3.org/2000/svg">
<path d="M29.19 16.46L17.19 28.46C16.9139 28.7302 16.5673 28.9173 16.19 29L12.65 29.71C12.3277 29.7737 11.9947 29.7571 11.6803 29.6615C11.366 29.566 11.0801 29.3945 10.8477 29.1622C10.6154 28.9299 10.4439 28.6439 10.3484 28.3296C10.2529 28.0153 10.2362 27.6823 10.3 27.36L11 23.85C11.0826 23.4726 11.2698 23.1261 11.54 22.85L23.38 11C23.7665 10.6039 24.2285 10.2891 24.7385 10.0742C25.2486 9.85925 25.7965 9.74854 26.35 9.74854C26.9034 9.74854 27.4513 9.85925 27.9614 10.0742C28.4715 10.2891 28.9334 10.6039 29.32 11C30.0089 11.7599 30.3796 12.7555 30.3554 13.7809C30.3312 14.8064 29.914 15.7834 29.19 16.51V16.46Z" stroke="#212325" stroke-width="2" stroke-linecap="round" stroke-linejoin="round"/>
<rect x="0.5" y="0.5" width="39" height="39" rx="7.5" stroke="#F1F1FA"/>
</svg>
